<svg width="207" height="145" viewBox="0 0 207 145" fill="none" xmlns="http://www.w3.org/2000/svg">
<rect x="162.5" y="17.5" width="43" height="43" rx="21.5" fill="white"/>
<rect x="162.5" y="17.5" width="43" height="43" rx="21.5" stroke="#333333"/>
<circle cx="184" cy="39" r="16" fill="#FDE215"/>
<circle cx="184" cy="39" r="8" fill="black"/>
<path d="M23.68 24.416C27.3493 24.416 30.272 25.952 32.448 29.024C34.6667 32.0533 35.776 36.5333 35.776 42.464C35.776 46.432 35.2427 49.7813 34.176 52.512C33.1093 55.2 31.6373 57.2267 29.76 58.592C27.8827 59.9573 25.728 60.64 23.296 60.64C21.76 60.64 20.4373 60.4267 19.328 60C18.2187 59.5733 17.28 59.0187 16.512 58.336C15.7867 57.6533 15.1467 56.928 14.592 56.16H14.144C14.272 56.9707 14.3787 57.824 14.464 58.72C14.5493 59.5733 14.592 60.4267 14.592 61.28V75.36H4.352V25.056H12.672L14.144 29.6H14.592C15.1467 28.6613 15.8293 27.808 16.64 27.04C17.4507 26.2293 18.432 25.5893 19.584 25.12C20.736 24.6507 22.1013 24.416 23.68 24.416ZM20.032 32.032C18.7093 32.032 17.6427 32.3733 16.832 33.056C16.0213 33.7387 15.4453 34.784 15.104 36.192C14.7627 37.5573 14.592 39.2853 14.592 41.376V42.4C14.592 44.6613 14.7627 46.5813 15.104 48.16C15.4453 49.696 16.0213 50.8693 16.832 51.68C17.6427 52.4907 18.752 52.896 20.16 52.896C21.312 52.896 22.272 52.4907 23.04 51.68C23.808 50.8693 24.384 49.6747 24.768 48.096C25.152 46.5173 25.344 44.5973 25.344 42.336C25.344 38.9227 24.896 36.3627 24 34.656C23.1467 32.9067 21.824 32.032 20.032 32.032ZM61.927 24.416C62.4817 24.416 63.079 24.4373 63.719 24.48C64.359 24.5227 64.8497 24.5867 65.191 24.672L64.359 33.632C64.0177 33.5467 63.5697 33.4827 63.015 33.44C62.4603 33.3547 61.8203 33.312 61.095 33.312C60.1563 33.312 59.1963 33.4827 58.215 33.824C57.2763 34.1227 56.4017 34.6133 55.591 35.296C54.823 35.9787 54.183 36.896 53.671 38.048C53.2017 39.1573 52.967 40.544 52.967 42.208V60H42.727V25.056H50.407L51.943 30.944H52.455C53.095 29.7493 53.8843 28.6613 54.823 27.68C55.7617 26.6987 56.8283 25.9093 58.023 25.312C59.2603 24.7147 60.5617 24.416 61.927 24.416ZM100.074 42.464C100.074 45.3653 99.6895 47.9467 98.9215 50.208C98.1962 52.4693 97.1295 54.3893 95.7215 55.968C94.3135 57.504 92.5855 58.6773 90.5375 59.488C88.5322 60.256 86.2708 60.64 83.7535 60.64C81.4068 60.64 79.2308 60.256 77.2255 59.488C75.2202 58.6773 73.4922 57.504 72.0415 55.968C70.6335 54.3893 69.5242 52.4693 68.7135 50.208C67.9455 47.9467 67.5615 45.3653 67.5615 42.464C67.5615 38.5813 68.2228 35.3173 69.5455 32.672C70.8682 29.984 72.7455 27.936 75.1775 26.528C77.6095 25.12 80.5322 24.416 83.9455 24.416C87.1028 24.416 89.8762 25.12 92.2655 26.528C94.6975 27.936 96.5962 29.984 97.9615 32.672C99.3695 35.3173 100.074 38.5813 100.074 42.464ZM77.9935 42.464C77.9935 44.768 78.1855 46.7093 78.5695 48.288C78.9962 49.824 79.6362 50.9973 80.4895 51.808C81.3855 52.576 82.5162 52.96 83.8815 52.96C85.2895 52.96 86.3988 52.576 87.2095 51.808C88.0628 50.9973 88.6815 49.824 89.0655 48.288C89.4495 46.7093 89.6415 44.768 89.6415 42.464C89.6415 40.16 89.4495 38.24 89.0655 36.704C88.6815 35.168 88.0415 34.016 87.1455 33.248C86.2922 32.48 85.1828 32.096 83.8175 32.096C81.7268 32.096 80.2335 32.9707 79.3375 34.72C78.4415 36.4267 77.9935 39.008 77.9935 42.464ZM130.848 49.632C130.848 51.9787 130.336 53.984 129.312 55.648C128.33 57.2693 126.816 58.5067 124.768 59.36C122.72 60.2133 120.074 60.64 116.832 60.64C114.485 60.64 112.437 60.4693 110.688 60.128C108.938 59.8293 107.168 59.3173 105.376 58.592V50.72C107.338 51.5733 109.365 52.2773 111.456 52.832C113.546 53.3867 115.296 53.664 116.704 53.664C118.24 53.664 119.328 53.3867 119.968 52.832C120.65 52.2773 120.992 51.552 120.992 50.656C120.992 50.0587 120.821 49.5253 120.48 49.056C120.138 48.5867 119.456 48.0533 118.432 47.456C117.408 46.8587 115.893 46.0907 113.888 45.152C111.925 44.2133 110.304 43.296 109.024 42.4C107.786 41.4613 106.848 40.352 106.208 39.072C105.61 37.7493 105.312 36.1067 105.312 34.144C105.312 30.9013 106.528 28.4693 108.96 26.848C111.434 25.2267 114.677 24.416 118.688 24.416C120.821 24.416 122.826 24.6293 124.704 25.056C126.581 25.4827 128.522 26.1867 130.528 27.168L127.648 34.016C126.538 33.504 125.45 33.056 124.384 32.672C123.317 32.288 122.293 31.9893 121.312 31.776C120.373 31.5627 119.477 31.456 118.624 31.456C117.514 31.456 116.661 31.648 116.064 32.032C115.509 32.416 115.232 32.992 115.232 33.76C115.232 34.3147 115.402 34.8267 115.744 35.296C116.085 35.7227 116.746 36.2133 117.728 36.768C118.709 37.28 120.138 37.9413 122.016 38.752C123.936 39.5627 125.536 40.416 126.816 41.312C128.138 42.1653 129.141 43.2533 129.824 44.576C130.506 45.856 130.848 47.5413 130.848 49.632ZM152.58 53.024C153.604 53.024 154.542 52.9173 155.396 52.704C156.292 52.4907 157.209 52.2347 158.148 51.936V59.04C157.081 59.4667 155.822 59.8293 154.372 60.128C152.964 60.4693 151.3 60.64 149.38 60.64C147.332 60.64 145.497 60.2987 143.876 59.616C142.297 58.9333 141.06 57.76 140.164 56.096C139.268 54.3893 138.82 52.0427 138.82 49.056V32.224H134.66V28.192L139.652 24.992L142.468 17.632H149.06V25.056H157.764V32.224H149.06V49.056C149.06 50.3787 149.38 51.3813 150.02 52.064C150.66 52.704 151.513 53.024 152.58 53.024ZM22.57 96.084C26.0673 96.084 28.853 97.548 30.927 100.476C33.0417 103.363 34.099 107.633 34.099 113.286C34.099 117.068 33.5907 120.26 32.574 122.863C31.5573 125.425 30.1543 127.357 28.365 128.658C26.5757 129.959 24.522 130.61 22.204 130.61C20.74 130.61 19.4793 130.407 18.422 130C17.3647 129.593 16.47 129.065 15.738 128.414C15.0467 127.763 14.4367 127.072 13.908 126.34H13.481C13.603 127.113 13.7047 127.926 13.786 128.78C13.8673 129.593 13.908 130.407 13.908 131.22V144.64H4.148V96.694H12.078L13.481 101.025H13.908C14.4367 100.13 15.0873 99.317 15.86 98.585C16.6327 97.8123 17.568 97.2023 18.666 96.755C19.764 96.3077 21.0653 96.084 22.57 96.084ZM19.093 103.343C17.8323 103.343 16.8157 103.668 16.043 104.319C15.2703 104.97 14.7213 105.966 14.396 107.308C14.0707 108.609 13.908 110.256 13.908 112.249V113.225C13.908 115.38 14.0707 117.21 14.396 118.715C14.7213 120.179 15.2703 121.297 16.043 122.07C16.8157 122.843 17.873 123.229 19.215 123.229C20.313 123.229 21.228 122.843 21.96 122.07C22.692 121.297 23.241 120.159 23.607 118.654C23.973 117.149 24.156 115.319 24.156 113.164C24.156 109.911 23.729 107.471 22.875 105.844C22.0617 104.177 20.801 103.343 19.093 103.343ZM59.0242 96.084C59.5528 96.084 60.1222 96.1043 60.7322 96.145C61.3422 96.1857 61.8098 96.2467 62.1352 96.328L61.3422 104.868C61.0168 104.787 60.5898 104.726 60.0612 104.685C59.5325 104.604 58.9225 104.563 58.2312 104.563C57.3365 104.563 56.4215 104.726 55.4862 105.051C54.5915 105.336 53.7578 105.803 52.9852 106.454C52.2532 107.105 51.6432 107.979 51.1552 109.077C50.7078 110.134 50.4842 111.456 50.4842 113.042V130H40.7242V96.694H48.0442L49.5082 102.306H49.9962C50.6062 101.167 51.3585 100.13 52.2532 99.195C53.1478 98.2597 54.1645 97.5073 55.3032 96.938C56.4825 96.3687 57.7228 96.084 59.0242 96.084ZM95.3826 113.286C95.3826 116.051 95.0166 118.512 94.2846 120.667C93.5932 122.822 92.5766 124.652 91.2346 126.157C89.8926 127.621 88.2456 128.739 86.2936 129.512C84.3822 130.244 82.2269 130.61 79.8276 130.61C77.5909 130.61 75.5169 130.244 73.6056 129.512C71.6942 128.739 70.0472 127.621 68.6646 126.157C67.3226 124.652 66.2652 122.822 65.4926 120.667C64.7606 118.512 64.3946 116.051 64.3946 113.286C64.3946 109.585 65.0249 106.474 66.2856 103.953C67.5462 101.391 69.3356 99.439 71.6536 98.097C73.9716 96.755 76.7572 96.084 80.0106 96.084C83.0199 96.084 85.6632 96.755 87.9406 98.097C90.2586 99.439 92.0682 101.391 93.3696 103.953C94.7116 106.474 95.3826 109.585 95.3826 113.286ZM74.3376 113.286C74.3376 115.482 74.5206 117.332 74.8866 118.837C75.2932 120.301 75.9032 121.419 76.7166 122.192C77.5706 122.924 78.6482 123.29 79.9496 123.29C81.2916 123.29 82.3489 122.924 83.1216 122.192C83.9349 121.419 84.5246 120.301 84.8906 118.837C85.2566 117.332 85.4396 115.482 85.4396 113.286C85.4396 111.09 85.2566 109.26 84.8906 107.796C84.5246 106.332 83.9146 105.234 83.0606 104.502C82.2472 103.77 81.1899 103.404 79.8886 103.404C77.8959 103.404 76.4726 104.238 75.6186 105.905C74.7646 107.532 74.3376 109.992 74.3376 113.286ZM111.782 94.437C111.782 95.6977 111.741 96.938 111.66 98.158C111.579 99.378 111.497 100.334 111.416 101.025H111.782C112.595 99.6423 113.673 98.4833 115.015 97.548C116.398 96.572 118.207 96.084 120.444 96.084C123.819 96.084 126.585 97.548 128.74 100.476C130.895 103.363 131.973 107.633 131.973 113.286C131.973 117.068 131.465 120.26 130.448 122.863C129.472 125.425 128.089 127.357 126.3 128.658C124.551 129.959 122.498 130.61 120.139 130.61C117.902 130.61 116.154 130.183 114.893 129.329C113.632 128.434 112.595 127.438 111.782 126.34H111.111L109.586 130H102.022V83.64H111.782V94.437ZM117.028 103.343C115.808 103.343 114.812 103.668 114.039 104.319C113.266 104.97 112.697 105.966 112.331 107.308C111.965 108.609 111.782 110.256 111.782 112.249V113.225C111.782 116.438 112.168 118.918 112.941 120.667C113.714 122.375 115.117 123.229 117.15 123.229C118.695 123.229 119.895 122.375 120.749 120.667C121.603 118.918 122.03 116.417 122.03 113.164C122.03 109.911 121.603 107.471 120.749 105.844C119.895 104.177 118.655 103.343 117.028 103.343ZM168.366 96.694V130H160.985L159.704 125.73H159.155C158.505 126.869 157.671 127.804 156.654 128.536C155.678 129.227 154.58 129.736 153.36 130.061C152.14 130.427 150.88 130.61 149.578 130.61C147.423 130.61 145.512 130.183 143.844 129.329C142.177 128.475 140.855 127.153 139.879 125.364C138.944 123.575 138.476 121.257 138.476 118.41V96.694H148.236V116.153C148.236 118.512 148.582 120.301 149.273 121.521C149.965 122.741 151.083 123.351 152.628 123.351C154.214 123.351 155.434 122.924 156.288 122.07C157.142 121.216 157.732 119.976 158.057 118.349C158.423 116.722 158.606 114.73 158.606 112.371V96.694H168.366ZM172.516 96.694H182.947L188.498 115.421C188.701 115.99 188.843 116.6 188.925 117.251C189.047 117.861 189.128 118.491 189.169 119.142C189.25 119.793 189.311 120.484 189.352 121.216H189.596C189.677 120.159 189.779 119.162 189.901 118.227C190.063 117.251 190.287 116.316 190.572 115.421L196.123 96.694H206.371L193.317 134.209C192.503 136.527 191.466 138.459 190.206 140.004C188.945 141.549 187.42 142.708 185.631 143.481C183.841 144.254 181.747 144.64 179.348 144.64C178.372 144.64 177.518 144.579 176.786 144.457C176.094 144.376 175.484 144.274 174.956 144.152V136.954C175.362 137.035 175.85 137.117 176.42 137.198C177.03 137.279 177.66 137.32 178.311 137.32C179.531 137.32 180.547 137.056 181.361 136.527C182.174 135.998 182.845 135.287 183.374 134.392C183.902 133.497 184.289 132.501 184.533 131.403L184.96 129.756L172.516 96.694Z" fill="white"/>
</svg>
