<svg width="266" height="65" viewBox="0 0 266 65" fill="none" xmlns="http://www.w3.org/2000/svg">
<rect x="210" y="1" width="55" height="55" rx="27.5" fill="white"/>
<rect x="210" y="1" width="55" height="55" rx="27.5" stroke="#333333" stroke-width="2"/>
<path d="M89.0039 39.0869H94.5614L97.5189 49.0644C97.6272 49.3677 97.7031 49.6927 97.7464 50.0394C97.8114 50.3644 97.8547 50.7002 97.8764 51.0469C97.9197 51.3936 97.9522 51.7619 97.9739 52.1519H98.1039C98.1472 51.5886 98.2014 51.0577 98.2664 50.5594C98.3531 50.0394 98.4722 49.5411 98.6239 49.0644L101.581 39.0869H107.041L100.086 59.0744C99.6531 60.3094 99.1006 61.3386 98.4289 62.1619C97.7572 62.9852 96.9447 63.6027 95.9914 64.0144C95.0381 64.4261 93.9222 64.6319 92.6439 64.6319C92.1239 64.6319 91.6689 64.5994 91.2789 64.5344C90.9106 64.4911 90.5856 64.4369 90.3039 64.3719V60.5369C90.5206 60.5802 90.7806 60.6236 91.0839 60.6669C91.4089 60.7102 91.7447 60.7319 92.0914 60.7319C92.7414 60.7319 93.2831 60.5911 93.7164 60.3094C94.1497 60.0277 94.5072 59.6486 94.7889 59.1719C95.0706 58.6952 95.2764 58.1644 95.4064 57.5794L95.6339 56.7019L89.0039 39.0869Z" fill="white"/>
<path d="M86.9333 39.0869V56.8319H83.0008L82.3183 54.5569H82.0258C81.6791 55.1636 81.235 55.6619 80.6933 56.0519C80.1733 56.4202 79.5883 56.6911 78.9383 56.8644C78.2883 57.0594 77.6166 57.1569 76.9233 57.1569C75.775 57.1569 74.7566 56.9294 73.8683 56.4744C72.98 56.0194 72.2758 55.3152 71.7558 54.3619C71.2575 53.4086 71.0083 52.1736 71.0083 50.6569V39.0869H76.2083V49.4544C76.2083 50.7111 76.3925 51.6644 76.7608 52.3144C77.1291 52.9644 77.725 53.2894 78.5483 53.2894C79.3933 53.2894 80.0433 53.0619 80.4983 52.6069C80.9533 52.1519 81.2675 51.4911 81.4408 50.6244C81.6358 49.7577 81.7333 48.6961 81.7333 47.4394V39.0869H86.9333Z" fill="white"/>
<path d="M56.9261 37.8846C56.9261 38.5562 56.9044 39.2171 56.8611 39.8671C56.8177 40.5171 56.7744 41.0262 56.7311 41.3946H56.9261C57.3594 40.6579 57.9336 40.0404 58.6486 39.5421C59.3852 39.0221 60.3494 38.7621 61.5411 38.7621C63.3394 38.7621 64.8127 39.5421 65.9611 41.1021C67.1094 42.6404 67.6836 44.9154 67.6836 47.9271C67.6836 49.9421 67.4127 51.6429 66.8711 53.0296C66.3511 54.3946 65.6144 55.4237 64.6611 56.1171C63.7294 56.8104 62.6352 57.1571 61.3786 57.1571C60.1869 57.1571 59.2552 56.9296 58.5836 56.4746C57.9119 55.9979 57.3594 55.4671 56.9261 54.8821H56.5686L55.7561 56.8321H51.7261V32.1321H56.9261V37.8846ZM59.7211 42.6296C59.0711 42.6296 58.5402 42.8029 58.1286 43.1496C57.7169 43.4962 57.4136 44.0271 57.2186 44.7421C57.0236 45.4354 56.9261 46.3129 56.9261 47.3746V47.8946C56.9261 49.6062 57.1319 50.9279 57.5436 51.8596C57.9552 52.7696 58.7027 53.2246 59.7861 53.2246C60.6094 53.2246 61.2486 52.7696 61.7036 51.8596C62.1586 50.9279 62.3861 49.5954 62.3861 47.8621C62.3861 46.1287 62.1586 44.8287 61.7036 43.9621C61.2486 43.0737 60.5877 42.6296 59.7211 42.6296Z" fill="white"/>
<path d="M48.3288 47.927C48.3288 49.4003 48.1338 50.7111 47.7438 51.8595C47.3755 53.0078 46.8338 53.9828 46.1188 54.7845C45.4038 55.5645 44.5263 56.1603 43.4863 56.572C42.468 56.962 41.3197 57.157 40.0413 57.157C38.8497 57.157 37.7447 56.962 36.7263 56.572C35.708 56.1603 34.8305 55.5645 34.0938 54.7845C33.3788 53.9828 32.8155 53.0078 32.4038 51.8595C32.0138 50.7111 31.8188 49.4003 31.8188 47.927C31.8188 45.9553 32.1547 44.2978 32.8263 42.9545C33.498 41.5895 34.4513 40.5495 35.6863 39.8345C36.9213 39.1195 38.4055 38.762 40.1388 38.762C41.7422 38.762 43.1505 39.1195 44.3638 39.8345C45.5988 40.5495 46.563 41.5895 47.2563 42.9545C47.9713 44.2978 48.3288 45.9553 48.3288 47.927ZM37.1163 47.927C37.1163 49.097 37.2138 50.0828 37.4088 50.8845C37.6255 51.6645 37.9505 52.2603 38.3838 52.672C38.8388 53.062 39.413 53.257 40.1063 53.257C40.8213 53.257 41.3847 53.062 41.7963 52.672C42.2297 52.2603 42.5438 51.6645 42.7388 50.8845C42.9338 50.0828 43.0313 49.097 43.0313 47.927C43.0313 46.757 42.9338 45.782 42.7388 45.002C42.5438 44.222 42.2188 43.637 41.7638 43.247C41.3305 42.857 40.7672 42.662 40.0738 42.662C39.0122 42.662 38.2538 43.1061 37.7988 43.9945C37.3438 44.8611 37.1163 46.172 37.1163 47.927Z" fill="white"/>
<path d="M29.0972 38.762C29.3788 38.762 29.6822 38.7728 30.0072 38.7945C30.3322 38.8161 30.5813 38.8486 30.7547 38.892L30.3322 43.442C30.1588 43.3986 29.9313 43.3661 29.6497 43.3445C29.368 43.3011 29.043 43.2795 28.6747 43.2795C28.198 43.2795 27.7105 43.3661 27.2122 43.5395C26.7355 43.6911 26.2913 43.9403 25.8797 44.287C25.4897 44.6336 25.1647 45.0995 24.9047 45.6845C24.6663 46.2478 24.5472 46.952 24.5472 47.797V56.832H19.3472V39.087H23.2472L24.0272 42.077H24.2872C24.6122 41.4703 25.013 40.9178 25.4897 40.4195C25.9663 39.9211 26.508 39.5203 27.1147 39.217C27.743 38.9136 28.4038 38.762 29.0972 38.762Z" fill="white"/>
<path d="M9.815 38.762C11.6783 38.762 13.1625 39.542 14.2675 41.102C15.3942 42.6403 15.9575 44.9153 15.9575 47.927C15.9575 49.942 15.6867 51.6428 15.145 53.0295C14.6033 54.3945 13.8558 55.4236 12.9025 56.117C11.9492 56.8103 10.855 57.157 9.62 57.157C8.84 57.157 8.16833 57.0486 7.605 56.832C7.04167 56.6153 6.565 56.3336 6.175 55.987C5.80667 55.6403 5.48167 55.272 5.2 54.882H4.9725C5.0375 55.2936 5.09167 55.727 5.135 56.182C5.17833 56.6153 5.2 57.0486 5.2 57.482V64.632H0V39.087H4.225L4.9725 41.3945H5.2C5.48167 40.9178 5.82833 40.4845 6.24 40.0945C6.65167 39.6828 7.15 39.3578 7.735 39.1195C8.32 38.8811 9.01333 38.762 9.815 38.762ZM7.9625 42.6295C7.29083 42.6295 6.74917 42.8028 6.3375 43.1495C5.92583 43.4961 5.63333 44.027 5.46 44.742C5.28667 45.4353 5.2 46.3128 5.2 47.3745V47.8945C5.2 49.0428 5.28667 50.0178 5.46 50.8195C5.63333 51.5995 5.92583 52.1953 6.3375 52.607C6.74917 53.0186 7.3125 53.2245 8.0275 53.2245C8.6125 53.2245 9.1 53.0186 9.49 52.607C9.88 52.1953 10.1725 51.5886 10.3675 50.787C10.5625 49.9853 10.66 49.0103 10.66 47.862C10.66 46.1286 10.4325 44.8286 9.9775 43.962C9.54417 43.0736 8.8725 42.6295 7.9625 42.6295Z" fill="white"/>
<path d="M106.889 13.9679C106.889 15.5999 106.673 17.0519 106.241 18.3239C105.833 19.5959 105.233 20.6759 104.441 21.5639C103.649 22.4279 102.677 23.0879 101.525 23.5439C100.397 23.9759 99.1251 24.1919 97.7091 24.1919C96.3891 24.1919 95.1651 23.9759 94.0371 23.5439C92.9091 23.0879 91.9371 22.4279 91.1211 21.5639C90.3291 20.6759 89.7051 19.5959 89.2491 18.3239C88.8171 17.0519 88.6011 15.5999 88.6011 13.9679C88.6011 11.7839 88.9731 9.94792 89.7171 8.45992C90.4611 6.94792 91.5171 5.79592 92.8851 5.00392C94.2531 4.21192 95.8971 3.81592 97.8171 3.81592C99.5931 3.81592 101.153 4.21192 102.497 5.00392C103.865 5.79592 104.933 6.94792 105.701 8.45992C106.493 9.94792 106.889 11.7839 106.889 13.9679ZM94.4691 13.9679C94.4691 15.2639 94.5771 16.3559 94.7931 17.2439C95.0331 18.1079 95.3931 18.7679 95.8731 19.2239C96.3771 19.6559 97.0131 19.8719 97.7811 19.8719C98.5731 19.8719 99.1971 19.6559 99.6531 19.2239C100.133 18.7679 100.481 18.1079 100.697 17.2439C100.913 16.3559 101.021 15.2639 101.021 13.9679C101.021 12.6719 100.913 11.5919 100.697 10.7279C100.481 9.86392 100.121 9.21592 99.6171 8.78392C99.1371 8.35192 98.5131 8.13592 97.7451 8.13592C96.5691 8.13592 95.7291 8.62792 95.2251 9.61192C94.7211 10.5719 94.4691 12.0239 94.4691 13.9679Z" fill="white"/>
<path d="M83.0561 19.908C83.6321 19.908 84.1601 19.848 84.6401 19.728C85.1441 19.608 85.6601 19.464 86.1881 19.296V23.292C85.5881 23.532 84.8801 23.736 84.0641 23.904C83.2721 24.096 82.3361 24.192 81.2561 24.192C80.1041 24.192 79.0721 24 78.1601 23.616C77.2721 23.232 76.5761 22.572 76.0721 21.636C75.5681 20.676 75.3161 19.356 75.3161 17.676V8.208H72.9761V5.94L75.7841 4.14L77.3681 0H81.0761V4.176H85.9721V8.208H81.0761V17.676C81.0761 18.42 81.2561 18.984 81.6161 19.368C81.9761 19.728 82.4561 19.908 83.0561 19.908Z" fill="white"/>
<path d="M70.9719 17.9999C70.9719 19.3199 70.6839 20.4479 70.1079 21.3839C69.5559 22.2959 68.7039 22.9919 67.5519 23.4719C66.3999 23.9519 64.9119 24.1919 63.0879 24.1919C61.7679 24.1919 60.6159 24.0959 59.6319 23.9039C58.6479 23.7359 57.6519 23.4479 56.6439 23.0399V18.6119C57.7479 19.0919 58.8879 19.4879 60.0639 19.7999C61.2399 20.1119 62.2239 20.2679 63.0159 20.2679C63.8799 20.2679 64.4919 20.1119 64.8519 19.7999C65.2359 19.4879 65.4279 19.0799 65.4279 18.5759C65.4279 18.2399 65.3319 17.9399 65.1399 17.6759C64.9479 17.4119 64.5639 17.1119 63.9879 16.7759C63.4119 16.4399 62.5599 16.0079 61.4319 15.4799C60.3279 14.9519 59.4159 14.4359 58.6959 13.9319C57.9999 13.4039 57.4719 12.7799 57.1119 12.0599C56.7759 11.3159 56.6079 10.3919 56.6079 9.28792C56.6079 7.46392 57.2919 6.09592 58.6599 5.18392C60.0519 4.27192 61.8759 3.81592 64.1319 3.81592C65.3319 3.81592 66.4599 3.93592 67.5159 4.17592C68.5719 4.41592 69.6639 4.81192 70.7919 5.36392L69.1719 9.21592C68.5479 8.92792 67.9359 8.67592 67.3359 8.45992C66.7359 8.24392 66.1599 8.07592 65.6079 7.95592C65.0799 7.83592 64.5759 7.77592 64.0959 7.77592C63.4719 7.77592 62.9919 7.88392 62.6559 8.09992C62.3439 8.31592 62.1879 8.63992 62.1879 9.07192C62.1879 9.38392 62.2839 9.67192 62.4759 9.93592C62.6679 10.1759 63.0399 10.4519 63.5919 10.7639C64.1439 11.0519 64.9479 11.4239 66.0039 11.8799C67.0839 12.3359 67.9839 12.8159 68.7039 13.3199C69.4479 13.7999 70.0119 14.4119 70.3959 15.1559C70.7799 15.8759 70.9719 16.8239 70.9719 17.9999Z" fill="white"/>
<path d="M53.8012 13.9679C53.8012 15.5999 53.5852 17.0519 53.1532 18.3239C52.7452 19.5959 52.1452 20.6759 51.3532 21.5639C50.5612 22.4279 49.5892 23.0879 48.4372 23.5439C47.3092 23.9759 46.0372 24.1919 44.6212 24.1919C43.3012 24.1919 42.0772 23.9759 40.9492 23.5439C39.8212 23.0879 38.8492 22.4279 38.0332 21.5639C37.2412 20.6759 36.6172 19.5959 36.1612 18.3239C35.7292 17.0519 35.5132 15.5999 35.5132 13.9679C35.5132 11.7839 35.8852 9.94792 36.6292 8.45992C37.3732 6.94792 38.4292 5.79592 39.7972 5.00392C41.1652 4.21192 42.8092 3.81592 44.7292 3.81592C46.5052 3.81592 48.0652 4.21192 49.4092 5.00392C50.7772 5.79592 51.8452 6.94792 52.6132 8.45992C53.4052 9.94792 53.8012 11.7839 53.8012 13.9679ZM41.3812 13.9679C41.3812 15.2639 41.4892 16.3559 41.7052 17.2439C41.9452 18.1079 42.3052 18.7679 42.7852 19.2239C43.2892 19.6559 43.9252 19.8719 44.6932 19.8719C45.4852 19.8719 46.1092 19.6559 46.5652 19.2239C47.0452 18.7679 47.3932 18.1079 47.6092 17.2439C47.8252 16.3559 47.9332 15.2639 47.9332 13.9679C47.9332 12.6719 47.8252 11.5919 47.6092 10.7279C47.3932 9.86392 47.0332 9.21592 46.5292 8.78392C46.0492 8.35192 45.4252 8.13592 44.6572 8.13592C43.4812 8.13592 42.6412 8.62792 42.1372 9.61192C41.6332 10.5719 41.3812 12.0239 41.3812 13.9679Z" fill="white"/>
<path d="M32.4841 3.81592C32.7961 3.81592 33.1321 3.82792 33.4921 3.85192C33.8521 3.87592 34.1281 3.91192 34.3201 3.95992L33.8521 8.99992C33.6601 8.95192 33.4081 8.91592 33.0961 8.89192C32.7841 8.84392 32.4241 8.81992 32.0161 8.81992C31.4881 8.81992 30.9481 8.91592 30.3961 9.10792C29.8681 9.27592 29.3761 9.55192 28.9201 9.93592C28.4881 10.3199 28.1281 10.8359 27.8401 11.4839C27.5761 12.1079 27.4441 12.8879 27.4441 13.8239V23.8319H21.6841V4.17592H26.0041L26.8681 7.48792H27.1561C27.5161 6.81592 27.9601 6.20392 28.4881 5.65192C29.0161 5.09992 29.6161 4.65592 30.2881 4.31992C30.9841 3.98392 31.7161 3.81592 32.4841 3.81592Z" fill="white"/>
<path d="M11.1103 3.81592C13.1743 3.81592 14.8183 4.67992 16.0423 6.40792C17.2903 8.11192 17.9143 10.6319 17.9143 13.9679C17.9143 16.1999 17.6143 18.0839 17.0143 19.6199C16.4143 21.1319 15.5863 22.2719 14.5303 23.0399C13.4743 23.8079 12.2623 24.1919 10.8943 24.1919C10.0303 24.1919 9.28628 24.0719 8.66228 23.8319C8.03828 23.5919 7.51028 23.2799 7.07828 22.8959C6.67028 22.5119 6.31028 22.1039 5.99828 21.6719H5.74628C5.81828 22.1279 5.87828 22.6079 5.92628 23.1119C5.97428 23.5919 5.99828 24.0719 5.99828 24.5519V32.4719H0.238281V4.17592H4.91828L5.74628 6.73192H5.99828C6.31028 6.20392 6.69428 5.72392 7.15028 5.29192C7.60628 4.83592 8.15828 4.47592 8.80628 4.21192C9.45428 3.94792 10.2223 3.81592 11.1103 3.81592ZM9.05828 8.09992C8.31428 8.09992 7.71428 8.29192 7.25828 8.67592C6.80228 9.05992 6.47828 9.64792 6.28628 10.4399C6.09428 11.2079 5.99828 12.1799 5.99828 13.3559V13.9319C5.99828 15.2039 6.09428 16.2839 6.28628 17.1719C6.47828 18.0359 6.80228 18.6959 7.25828 19.1519C7.71428 19.6079 8.33828 19.8359 9.13028 19.8359C9.77828 19.8359 10.3183 19.6079 10.7503 19.1519C11.1823 18.6959 11.5063 18.0239 11.7223 17.1359C11.9383 16.2479 12.0463 15.1679 12.0463 13.8959C12.0463 11.9759 11.7943 10.5359 11.2903 9.57592C10.8103 8.59192 10.0663 8.09992 9.05828 8.09992Z" fill="white"/>
<path d="M174.991 0C179.363 0 182.991 0.638655 185.874 1.91597C188.757 3.14005 190.895 5.02941 192.288 7.58404C193.73 10.0854 194.45 13.2521 194.45 17.084C194.45 19.6919 194.066 21.9804 193.297 23.9496C192.577 25.8655 191.568 27.5154 190.27 28.8992C188.973 30.2297 187.508 31.3207 185.874 32.1723L200 57H186.955L176.072 35.126H171.676V57H160V0H174.991ZM174.486 9.89916H171.676V25.3067H174.559C176.336 25.3067 177.826 25.014 179.027 24.4286C180.228 23.8431 181.141 22.965 181.766 21.7941C182.39 20.57 182.703 19.1064 182.703 17.4034C182.703 15.5938 182.414 14.1569 181.838 13.0924C181.261 11.9748 180.372 11.1765 179.171 10.6975C177.97 10.1653 176.408 9.89916 174.486 9.89916Z" fill="#FDE215"/>
<path d="M132.962 0C139.118 0 143.651 1.47634 146.562 4.42902C149.521 7.3325 151 11.3432 151 16.4612C151 18.7741 150.69 20.9886 150.069 23.1047C149.449 25.1716 148.423 27.0416 146.992 28.7148C145.56 30.3388 143.651 31.6183 141.265 32.5533C138.927 33.4883 136.04 33.9558 132.604 33.9558H128.596V41H117V0H132.962ZM132.604 9.15332H128.596V24.8025H131.531C133.058 24.8025 134.418 24.5319 135.611 23.9905C136.804 23.4492 137.734 22.588 138.402 21.4069C139.07 20.2259 139.404 18.7003 139.404 16.8303C139.404 14.2221 138.832 12.3028 137.686 11.0726C136.589 9.79307 134.895 9.15332 132.604 9.15332Z" fill="#FDE215"/>
<path d="M117 47H129V57H117V47Z" fill="#FDE215"/>
<path d="M258 28.5C258 39.8218 248.822 49 237.5 49C226.178 49 217 39.8218 217 28.5C217 17.1782 226.178 8 237.5 8C248.822 8 258 17.1782 258 28.5Z" fill="#FDE215"/>
<path d="M250 28.5C250 35.4036 244.404 41 237.5 41C230.596 41 225 35.4036 225 28.5C225 21.5964 230.596 16 237.5 16C244.404 16 250 21.5964 250 28.5Z" fill="black"/>
</svg>
